<svg xmlns="http://www.w3.org/2000/svg" class="" id="Capa_1" style="" viewBox="0 0 18.713 18.713" x="0px" y="0px" width="512px" height="512px" xmlns:xml="http://www.w3.org/XML/1998/namespace" xml:space="preserve" version="1.1"><g><g>
	<path class="active-path" fill="#ffffff" d="M 13.367 6.434 L 8.872 1.895 l -0.65 -0.672 L 6.687 2.731 c -2.624 -0.375 -4.51 0.59 -5.178 1.777 C 0.698 5.949 1.527 7.522 1.553 7.57 c 0.693 1.385 1.689 2.216 2.961 2.473 c 0.279 0.055 0.56 0.08 0.84 0.08 c 1.322 0 2.644 -0.561 3.649 -1.135 c 0.271 0.188 0.601 0.299 0.954 0.299 c 0.93 0 1.686 -0.759 1.686 -1.691 s -0.756 -1.69 -1.686 -1.69 s -1.686 0.758 -1.686 1.69 c 0 0.093 0.013 0.184 0.027 0.274 C 7.286 8.445 5.951 8.986 4.77 8.748 C 3.905 8.573 3.237 7.995 2.719 6.96 C 2.714 6.95 2.203 5.957 2.654 5.157 c 0.38 -0.676 1.371 -1.111 2.883 -1.275 L 5.302 4.119 L 3.13 6.299 c 0.023 0.053 0.04 0.085 0.041 0.087 c 0.209 0.418 0.444 0.758 0.706 1.03 l 3.932 -3.943 c 0.187 -0.187 0.435 -0.29 0.698 -0.29 s 0.513 0.103 0.698 0.29 l 4.771 4.787 c 0.385 0.385 0.385 1.014 0 1.399 L 7.774 15.88 c -0.372 0.373 -1.023 0.373 -1.396 0 l -4.772 -4.787 c -0.187 -0.186 -0.289 -0.434 -0.289 -0.699 c 0 -0.264 0.102 -0.514 0.289 -0.7 l 0.515 -0.518 C 1.828 8.874 1.568 8.512 1.335 8.098 l -0.66 0.663 C 0.24 9.197 0 9.777 0 10.394 c 0 0.617 0.24 1.197 0.675 1.633 l 4.772 4.787 c 0.435 0.436 1.012 0.676 1.628 0.676 c 0.614 0 1.193 -0.24 1.628 -0.676 l 6.201 -6.221 L 16.205 9.3 l -0.361 -0.365 c 0.683 -0.373 0.987 2.744 0.987 2.744 s 0.954 7.439 1.802 0 C 19.443 4.56 13.854 6.272 13.367 6.434 Z" data-old_color="#030104" data-original="#030104" />
</g></g> </svg>